# xmcd
#
# Track frame offsets: 
#        150
#        24316
#        52219
#        63793
#        87559
#        110502
#        127914
#        143041
#        161059
#        175174
#        197974
#        220093
#        234751
#        256874
#        270674
#
# Disc length: 3883 seconds
#
# Revision: 0
# Processed by: cddbd v1.5.2PL0 Copyright (c) Steve Scherf et al.
# Submitted via: ExactAudioCopyFreeDBPlugin 1.0
#
DISCID=cf0f290f
DTITLE=Free - All Right Now - The Essential Disc 3
DYEAR=1900
DGENRE=
TTITLE0=The Hunter (Live)
TTITLE1=Heartbreaker
TTITLE2=Little Bit Of Love
TTITLE3=Child
TTITLE4=Goodbye
TTITLE5=Lying In The Sunshine
TTITLE6=Trouble On Double Time
TTITLE7=On My Way
TTITLE8=Sunny Day
TTITLE9=Moonshire
TTITLE10=Sweet Tooth
TTITLE11=Broad Daylight
TTITLE12=Love You So
TTITLE13=Sail On
TTITLE14=Come Together In The Morning
EXTD=
EXTT0=
EXTT1=
EXTT2=
EXTT3=
EXTT4=
EXTT5=
EXTT6=
EXTT7=
EXTT8=
EXTT9=
EXTT10=
EXTT11=
EXTT12=
EXTT13=
EXTT14=
PLAYORDER=
